<?xml version="1.0" encoding="utf-8"?>
<!-- Generator: Adobe Illustrator 24.1.1, SVG Export Plug-In . SVG Version: 6.00 Build 0)  -->
<svg version="1.1" id="Capa_1" xmlns="http://www.w3.org/2000/svg" xmlns:xlink="http://www.w3.org/1999/xlink" x="0px" y="0px"
	 viewBox="0 0 1920 1080" enable-background="new 0 0 1920 1080" xml:space="preserve">
<path opacity="0.22" fill="#3B9ABF" d="M1222,1080H2.96V0C144.8,99.84,210.27,46.41,243,210.94s63.91,296.72,215.1,344.53
	S671.65,741.09,707.5,807.19s91.96,153.28,272.78,163.13S1222,1080,1222,1080"/>
<rect x="460.18" y="115.23" opacity="0.1" fill="#00BFA6" enable-background="new    " width="70.95" height="156.01"/>
<polygon opacity="0.1" fill="#00BFA6" enable-background="new    " points="531.14,276.03 531.14,430.91 178.99,430.91 
	178.99,364.1 366.56,364.1 366.56,403.51 460.18,403.51 460.18,276.03 "/>
<path opacity="0.1" fill="#00BFA6" enable-background="new    " d="M532.25,601.76c-0.37,0-0.74,0-1.13-0.07v101.6
	c-12.71-1.04-25.38-2.49-38-4.36c-56.85-8.23-112.27-24.24-164.69-47.58c-15.13-6.78-29.96-14.16-44.47-22.16
	c-24.24-13.34-47.47-28.42-69.49-45.13c-5.55-4.21-11.01-8.51-16.39-12.91c-3.73-3.07-7.43-6.2-11.2-9.24
	c-2.59-2.09-5.22-4.16-7.89-6.14V435.7h280.27c-0.2-0.72-0.38-1.42-0.59-2.14c0.21,0.72,0.42,1.42,0.6,2.14h71.87v165.99
	C531.51,601.7,531.88,601.73,532.25,601.76z"/>
<path opacity="0.1" fill="#00BFA6" enable-background="new    " d="M827.56,271.25H600.58c0.02,0.01,0.05,0.01,0.07,0h-0.1h-42.08
	V115.24h11.93v115.31h54.51v-68.29h45.05v-53.88h46.23v53.92h45.02v68.29h66.37L827.56,271.25z"/>
<path opacity="0.1" fill="#00BFA6" enable-background="new    " d="M558.47,276.04v154.87h269.1V276.04H558.47z M900.58,613.19
	l0.38-122.59h-73.39v-54.86h-269.1v269.29c22.06,0.91,44.16,0.65,66.19-0.79l0,0h0.38c10.52-0.67,21-1.63,31.43-2.87h0.24
	c55.64-6.43,110.04-20.86,161.5-42.83"/>
<path opacity="0.1" fill="#00BFA6" enable-background="new    " d="M933.04,435.7h62.77c-0.54,31.45-6.9,62.34-20.83,90.86
	c-11.57,23.7-27.66,44.42-46.68,62.53v-98.52h4.74V435.7z"/>
<path opacity="0.1" fill="#00BFA6" enable-background="new    " d="M995.86,430.91h-62.82V301.48h34
	C984.62,342.26,995.81,387.04,995.86,430.91z"/>
<rect x="493.13" y="158.6" opacity="0.1" fill="#00BFA6" enable-background="new    " width="38.01" height="48.91"/>
<rect x="493.13" y="259.98" opacity="0.1" fill="#00BFA6" enable-background="new    " width="38.01" height="11.26"/>
<rect x="493.13" y="276.03" opacity="0.1" fill="#00BFA6" enable-background="new    " width="38.01" height="32.86"/>
<rect x="493.13" y="361.37" opacity="0.1" fill="#00BFA6" enable-background="new    " width="38.01" height="48.91"/>
<rect x="493.13" y="462.76" opacity="0.1" fill="#00BFA6" enable-background="new    " width="38.01" height="48.91"/>
<path opacity="0.1" fill="#00BFA6" enable-background="new    " d="M531.14,601.68c0.37,0,0.74,0,1.13,0.08
	c-0.37,0-0.74,0-1.13-0.07v11.36h-38.01v-48.91h38.01L531.14,601.68z"/>
<path opacity="0.1" fill="#00BFA6" enable-background="new    " d="M531.14,665.52v37.77c-12.72-1.04-25.39-2.49-38.01-4.36v-33.42
	H531.14z"/>
<rect x="178.99" y="427.31" opacity="0.1" fill="#00BFA6" enable-background="new    " width="162.9" height="3.59"/>
<rect x="178.99" y="435.69" opacity="0.1" fill="#00BFA6" enable-background="new    " width="162.9" height="13.77"/>
<rect x="178.99" y="494.6" opacity="0.1" fill="#00BFA6" enable-background="new    " width="162.9" height="22.14"/>
<path opacity="0.1" fill="#00BFA6" enable-background="new    " d="M341.89,561.88v22.14H214.47c-5.55-4.19-11.01-8.5-16.39-12.92
	c-3.74-3.06-7.44-6.19-11.2-9.23L341.89,561.88z"/>
<path opacity="0.1" fill="#00BFA6" enable-background="new    " d="M341.89,629.16v22.2h-13.45c-15.13-6.78-29.96-14.16-44.47-22.16
	L341.89,629.16z"/>
<rect x="624.66" y="291.04" opacity="0.1" fill="#00BFA6" enable-background="new    " width="32.07" height="31.84"/>
<rect x="747.08" y="291.04" opacity="0.1" fill="#00BFA6" enable-background="new    " width="32.07" height="31.84"/>
<rect x="624.66" y="369.58" opacity="0.1" fill="#00BFA6" enable-background="new    " width="32.07" height="31.84"/>
<rect x="747.08" y="369.58" opacity="0.1" fill="#00BFA6" enable-background="new    " width="32.07" height="31.84"/>
<rect x="624.66" y="448.1" opacity="0.1" fill="#00BFA6" enable-background="new    " width="32.07" height="31.84"/>
<rect x="747.08" y="448.1" opacity="0.1" fill="#00BFA6" enable-background="new    " width="32.07" height="31.84"/>
<rect x="624.66" y="526.64" opacity="0.1" fill="#00BFA6" enable-background="new    " width="32.07" height="31.84"/>
<rect x="747.08" y="526.64" opacity="0.1" fill="#00BFA6" enable-background="new    " width="32.07" height="31.84"/>
<rect x="624.66" y="605.18" opacity="0.1" fill="#00BFA6" enable-background="new    " width="32.07" height="31.84"/>
<rect x="747.08" y="605.18" opacity="0.1" fill="#00BFA6" enable-background="new    " width="32.07" height="31.84"/>
<polygon opacity="0.1" fill="#00BFA6" enable-background="new    " points="624.66,704.24 624.66,683.7 656.71,683.7 656.71,701.31 
	"/>
<path opacity="0.1" fill="#00BFA6" enable-background="new    " d="M600.58,271.25L600.58,271.25L600.58,271.25z M531.12,601.68
	L531.12,601.68h1.13H531.12z M458.66,433.56c0.21,0.72,0.41,1.43,0.6,2.14l0,0C459.08,434.99,458.88,434.28,458.66,433.56z
	 M600.58,271.25L600.58,271.25L600.58,271.25z M531.14,601.68L531.14,601.68h1.13H531.14z M458.66,433.56
	c0.21,0.72,0.41,1.43,0.6,2.14l0,0C459.08,434.99,458.88,434.28,458.66,433.56z M600.58,271.25L600.58,271.25L600.58,271.25z
	 M531.12,601.68L531.12,601.68h1.13H531.12z M458.66,433.56c0.21,0.72,0.41,1.43,0.6,2.14l0,0
	C459.08,434.99,458.88,434.28,458.66,433.56z"/>
<ellipse opacity="0.1" fill="#00BFA6" enable-background="new    " cx="670.92" cy="845.92" rx="109.87" ry="17.52"/>
<path opacity="0.1" fill="#00BFA6" enable-background="new    " d="M175.4,810.87c60.68,0,109.87,7.84,109.87,17.52
	c0,9.68-49.19,17.52-109.87,17.52s-91.39,1.89-91.39-7.79S114.72,810.87,175.4,810.87z"/>
<linearGradient id="SVGID_1_" gradientUnits="userSpaceOnUse" x1="220.1769" y1="230.5727" x2="220.1769" y2="877.3439" gradientTransform="matrix(1 0 0 -1 -15.95 1063.4399)">
	<stop  offset="0" style="stop-color:#808080;stop-opacity:0.25"/>
	<stop  offset="0.54" style="stop-color:#808080;stop-opacity:0.12"/>
	<stop  offset="1" style="stop-color:#808080;stop-opacity:0.1"/>
</linearGradient>
<path fill="url(#SVGID_1_)" d="M301.89,365.1c-0.03-0.11-0.09-0.21-0.17-0.29c-1.68-1.65-23.1-31.73-23.1-31.73
	s-1.13-3.36-2.95-7.72c0.59-0.75,1.03-1.61,1.3-2.52c0.1-0.39,0.17-0.78,0.21-1.18c0-0.12,0.09-0.22,0.12-0.35
	c0.39-1.52,0.35-3.11-0.11-4.61c-0.13,0.38-0.28,0.76-0.46,1.12c-0.42-1.3-0.99-2.56-1.69-3.74c-2.84-4.86-6.9-8.96-9.89-13.69
	c-4.52-7.36-6.32-16.05-5.09-24.59c0,0.44,0,0.88,0,1.32c0.11-1.69,0.34-3.38,0.68-5.04c0.47-1.89,1.1-3.74,1.88-5.53
	c2.68-6.1,7.02-11.42,9.66-17.54c0.89-2.07,1.56-4.21,2.01-6.42c0.93-3.67,1.27-7.47,1-11.25c0,0.9-0.15,1.79-0.28,2.68
	c-0.29-9.09-3.98-17.74-10.36-24.26c-9.21-9.19-22.44-12.76-35.09-14.64c-5.32-0.62-10.39-2.54-14.77-5.6
	c-4.86-3.12-11.14-3.87-16.82-3.19c-6.53,0.7-12.6,3.68-17.13,8.41c-6.01,6.56-8.61,15.85-15.63,21.38
	c-4.25,3.36-9.64,4.93-14.59,7.21c-4.95,2.28-9.63,5.6-11.22,10.5c0,0,0-0.07,0-0.1v0.28l-0.07,0.18c-1.65,5.8,1.53,11.7,3.19,17.49
	c1.73,5.99,1.84,12.32,1.93,18.51c0.12,7.57,0.24,15.15,0.11,22.73c-0.06,2.98-0.16,5.99-0.38,8.96c-2.67,0.8-5.26,1.84-7.75,3.09
	c-2.53,1.63-11.97,11.77-11.97,11.77l-18.48,70.11l0.25,0.28l-0.25,0.95l0.94-0.21c2.62,2.8,10.43,10.77,18.86,15.74l0.79,13.75
	c0,0,0.95,13.79,13.72,19.49c0.29,4.78,1.21,24.19-3.02,31.88c-2.93,5.62-4.31,11.91-3.99,18.23c0,0,1.48,11.67-0.2,17.8
	c-0.98,4.1-1.05,8.36-0.21,12.49l0,0c0,0,0,1.35,0,3.68c0,12.42,0.15,52.21,0,56.71c-0.21,5.32,0,83.97,0,83.97
	s-1.05,39.31-4.41,49.95c-3.36,10.65-2.51,45.9-2.51,45.9s-2.11,41.99,5.34,50.28c0,0.37-0.07,0.75-0.08,1.12c0,0.17,0,0.36,0,0.53
	c-0.09,3.19,0.53,6.58,3.29,7.62c5.64,2.15,13.09,8.6,14.5,10.45s9.61,6.45,20.3,5.22c6.7-0.75,13.44-1.05,20.17-0.92l0,0
	c0,0,4.22-0.76,2.85-5.97l0,0l0,0c-0.88-3.25-4.17-8.24-6.52-11.52c0.43,0.11,0.85,0.2,1.24,0.28l0.41,0.08h0.32
	c0.17,0.01,0.35,0.01,0.52,0h0.23c0.21,0.02,0.42,0.02,0.63,0l0,0c2.83-0.27,13.38,4.61,15.27,7.84c1.88,3.22,8.52,5.68,13.53,6.29
	c2.98,0.36,10.49-0.25,16.79-1.05c3.17-0.33,6.32-0.89,9.4-1.7c1.49-0.56,1.8-2.35,1.38-4.37l0,0c-0.51-2.56-1.88-4.87-3.9-6.54
	c-1.83-1.29-4.24-4.68-6.02-7.46l-0.47-0.75c3.15-2.98,8.83-12.72,10.55-14.73c2.1-2.45-3.38-92.12-3.38-92.12v-44.95l8.4-42.54
	l5.87-22.51l5.04-33.99c0,0,8.82-39.7,6.1-43.6l0,0c0-0.08-2.26-40.95-4.62-50.77c-1.03-4.38-0.77-14.23-0.16-23.81
	c1.3-1.28,1.74-3.19,1.13-4.9c-0.17-0.57-0.39-1.13-0.65-1.67c0-0.17,0-0.35,0-0.51c4.87-2.23,9.96-3.94,15.19-5.13
	c8.4-1.63,6.3-5.93,6.3-5.93s1.89-3.68,3.15-5.93c1.25-2.25,0.21-22.11,0-23.75c-0.08-0.66-0.6-4.31-1.2-8.45
	c2.69-1.9,6.2-4.27,10.02-6.5C304.12,370.79,302.49,366.28,301.89,365.1z M192.29,648.94c0,0-6.3,15.96-3.78,20.05
	c2.53,4.09-0.42,19.26-0.42,19.26l-2.11,22.51c0,0-5.87,41.76-3.78,51.58c1.65,7.7,2.26,30.71,2.45,40.3l0,0
	c-0.14,0.06-0.28,0.12-0.42,0.2l-0.28,0.15c0.97-3.77,0.56-11.41-4.25-26.77l-0.41-63.45c0,0-0.74-73.29,5.09-81.48
	c5.83-8.2,7.89-22.11,7.89-22.11s-1.26,20.07-2.09,25.39C189.37,639.9,192.29,648.94,192.29,648.94z M180.55,806.64
	c-0.06,0.13-0.12,0.27-0.17,0.39l-0.32-0.4C180.23,806.65,180.39,806.65,180.55,806.64z"/>
<path fill="#FFFFFF" d="M244.84,831.79c-3.26,1.24-20.93,3.36-25.87,2.77s-11.48-3.08-13.34-6.33c-1.86-3.25-12.29-8.15-15.09-7.84
	c-1.15,0.03-2.29-0.12-3.38-0.47c-1.93-0.58-3.81-1.3-5.64-2.15c-0.25-1.41-0.21-2.86,0.12-4.25c0.06-0.28,0.15-0.56,0.25-0.83
	c0.66-1.84,2.02-3.34,3.79-4.19l0.41-0.19c0.78-0.34,1.6-0.58,2.44-0.74c8.86-1.69,45.43,1.7,45.43,1.7s1.03,1.82,2.44,4.09
	c1.76,2.8,4.15,6.21,5.95,7.5c2,1.7,3.35,4.02,3.84,6.58C246.62,829.43,246.3,831.24,244.84,831.79z"/>
<path opacity="0.1" enable-background="new    " d="M244.84,831.79c-3.26,1.24-20.92,3.36-25.86,2.77s-11.48-3.09-13.35-6.33
	c-1.87-3.24-12.28-8.15-15.08-7.84c-2.8,0.31-9.02-2.62-9.02-2.62s-0.97-4.48,1.85-7.53l5.64,3.97c0,0,15.09,4.65,17.88,8.96
	c2.8,4.31,7.89,6.72,15.26,7.15c5.5,0.36,18.14-1.77,24.06-2.83C246.62,829.43,246.31,831.24,244.84,831.79z"/>
<path fill="#FFFFFF" d="M190.86,837.5c-6.65-0.13-13.3,0.18-19.91,0.93c-10.59,1.23-18.67-3.36-20.08-5.25
	c-1.41-1.89-8.7-8.28-14.31-10.52c-2.74-1.05-3.38-4.48-3.26-7.68c0-0.17,0-0.36,0-0.53c0.1-2.03,0.41-4.04,0.9-6.01l43.87-0.93
	l3.8,5.12l0.59,0.78l2.31,3.12c0,0,1.05,1.37,2.42,3.36c2.32,3.36,5.57,8.32,6.44,11.6l0,0C195.02,836.74,190.86,837.5,190.86,837.5
	z"/>
<path opacity="0.1" enable-background="new    " d="M190.86,837.5c-6.65-0.13-13.3,0.18-19.91,0.93
	c-10.58,1.23-18.67-3.36-20.07-5.25c-1.4-1.89-8.72-8.34-14.32-10.5c-2.74-1.05-3.38-4.48-3.26-7.68c3.13,0.73,9.72,2.59,12.3,5.82
	c3.38,4.32,9.44,11.59,18.04,12.05c6.95,0.37,23.86-0.86,30.06-1.35C195.03,836.74,190.86,837.5,190.86,837.5z"/>
<path opacity="0.1" enable-background="new    " d="M185.64,808.46c-0.51,3.74-2.07,4.75-3.2,4.97c-0.28,0.05-0.56,0.05-0.83,0
	c-0.15-0.01-0.3-0.03-0.44-0.07c0,0-39.4,8.64-47.36,1.65c-0.2-0.18-0.39-0.37-0.56-0.58c0.1-2.03,0.41-4.04,0.9-6.01l43.87-0.93
	l3.8,5.12c0.66-1.84,2.02-3.34,3.79-4.19L185.64,808.46z"/>
<path opacity="0.1" enable-background="new    " d="M236.38,813.31c-0.88,0.96-1.61,1.51-2.07,1.32
	c-2.07-0.83-19.08-3.71-24.48-1.23c-5.4,2.47-23.68,0.4-23.68,0.4s0-2.15-0.1-5.6c0.78-0.34,1.6-0.58,2.44-0.74
	c8.86-1.69,45.43,1.7,45.43,1.7S234.98,811.05,236.38,813.31z"/>
<path fill="#00BFA6" d="M262.11,560.07l-4.98,34.19l-5.8,22.66l-8.3,42.83v45.34c0,0,5.39,90.21,3.32,92.68
	c-2.07,2.46-9.96,16.49-12.03,15.67c-2.07-0.82-19.08-3.71-24.48-1.24c-5.4,2.46-23.68,0.41-23.68,0.41s-0.42-35.01-2.49-44.89
	s3.73-51.9,3.73-51.9l2.07-22.65c0,0,2.91-15.25,0.42-19.37c-2.49-4.12,3.73-20.15,3.73-20.15s-2.9-9.08-2.06-14.43
	c0.83-5.35,2.06-25.54,2.06-25.54s-2.06,14.02-7.83,22.25c-5.76,8.23-5.03,81.97-5.03,81.97l0.41,63.81c10.38,33.79,0,30.49,0,30.49
	s-39.4,8.65-47.36,1.65c-7.96-7.01-5.68-51.12-5.68-51.12s-0.82-35.42,2.49-46.13c3.32-10.7,4.36-50.26,4.36-50.26
	s-0.21-79.1,0-84.44c0.16-4.48,0-44.57,0-57.1c0-2.33,0-3.71,0-3.71l4.76-11.73l56.38-7.01h26.97c0,0,40.59,9.47,44.79,13.56
	c0.09,0.07,0.17,0.15,0.23,0.25C270.83,520.13,262.11,560.07,262.11,560.07z"/>
<path opacity="0.1" enable-background="new    " d="M193.66,739.67c0,0,12.4,29.66,18.26,31.72
	C217.76,773.45,193.66,739.67,193.66,739.67z"/>
<path opacity="0.1" enable-background="new    " d="M198.25,783.33c0,0,41.88,2.06,41.46,6.59
	C239.29,794.46,198.25,783.33,198.25,783.33z"/>
<path opacity="0.1" enable-background="new    " d="M142.22,771.48c1.66,1.56,31.94,4.48,29.45,7.32
	c-2.49,2.84-26.96,8.37-26.96,8.37L142.22,771.48z"/>
<path opacity="0.1" enable-background="new    " d="M137.24,720.31c0,1.23,6.22,39.54,7.89,41.19c1.67,1.65,15.35,3.29,15.35,3.29
	L137.24,720.31z"/>
<path fill="#3F3D56" d="M182.4,196.65c-5.94,6.59-8.51,15.94-15.44,21.52c-4.21,3.36-9.53,4.96-14.42,7.24
	c-4.89,2.28-9.74,5.77-11.2,10.94c-1.62,5.82,1.51,11.77,3.16,17.59c1.7,6.02,1.8,12.32,1.91,18.62c0.11,7.62,0.24,15.25,0.1,22.87
	c-0.2,11.88-1.2,24.31-7.54,34.37c22.92,7.24,47.3,8.23,71.34,9.16c4.62,0.33,9.26,0.21,13.86-0.35c3.98-0.79,7.92-1.78,11.81-2.97
	c7.67-2.02,15.58-3.02,23.52-2.99c3.46,0,6.99,0.21,10.33-0.68s6.55-3.19,7.45-6.5c0.8-2.98-0.37-6.15-1.91-8.82
	c-2.8-4.88-6.77-8.96-9.76-13.77c-6.21-10.31-7.12-22.94-2.45-34.02c2.66-6.15,6.95-11.5,9.56-17.66c5.47-13.5,2.52-28.93-7.55-39.5
	c-9.1-9.25-22.16-12.83-34.65-14.73c-5.26-0.62-10.28-2.54-14.59-5.6c-4.79-3.13-11.01-3.9-16.62-3.2
	C192.83,188.89,186.83,191.9,182.4,196.65z"/>
<g opacity="0.1">
	<path d="M263.51,262.39c-2.3,5.39-3.28,11.25-2.88,17.1c0.25-4.18,1.23-8.28,2.88-12.14c2.65-6.15,6.93-11.5,9.55-17.66
		c2.14-5.14,3.04-10.71,2.63-16.26c-0.23,3.89-1.12,7.71-2.63,11.31C270.44,250.9,266.16,256.25,263.51,262.39z"/>
	<path d="M146.75,271.03c0.07,4.39,0.14,8.79,0.15,13.18c0-6.05-0.06-12.08-0.15-18.11c-0.09-6.26-0.2-12.6-1.91-18.63
		c-1.13-3.83-2.8-7.71-3.38-11.58c-1,5.49,1.85,11.05,3.38,16.52C146.55,258.39,146.66,264.78,146.75,271.03z"/>
	<path d="M270.21,325.57c-3.38,0.91-6.86,0.71-10.32,0.68c-7.93-0.05-15.84,0.94-23.51,2.93c-3.88,1.18-7.82,2.17-11.81,2.96
		c-4.6,0.57-9.25,0.69-13.87,0.36c-23.23-0.91-46.78-1.88-69.03-8.48c-0.66,1.46-1.41,2.88-2.26,4.25
		c22.92,7.23,47.3,8.23,71.33,9.16c4.62,0.33,9.27,0.21,13.87-0.36c3.97-0.78,7.89-1.76,11.76-2.94c7.66-2,15.55-3,23.46-2.97
		c3.46,0,6.98,0.21,10.32-0.69c3.34-0.91,6.55-3.18,7.45-6.49c0.38-1.53,0.34-3.14-0.11-4.66
		C276.5,322.46,273.4,324.64,270.21,325.57z"/>
</g>
<path fill="#FBBEBE" d="M236.81,312.3c-0.83,1.86-4.35,17.91-5.19,19.56s-5.39,27.99-5.81,29.47c-0.42,1.48-30.03-6.18-30.03-6.18
	l-17.83-14.83l-18.32-18.1c0,0-0.54-16.33,12.96-21.57c0.92-0.36,1.86-0.65,2.82-0.87c16.37-3.91,14.73-53.34,14.73-53.34
	l33.6,14.41c0,0-6.22,28.84-6.01,34.4c0.06,1.87,1.53,3.03,3.46,3.74c2.98,0.84,6.08,1.18,9.18,0.99
	C230.37,299.96,237.64,310.45,236.81,312.3z"/>
<path fill="#00BFA6" d="M296.96,366.47l4.77,1.24c0,0,3.53,5.33-4.77,10.29c-5.27,3.18-10.33,6.69-15.14,10.51l-24.52,7.41
	l-4.72-14.72l22.82-17.2L296.96,366.47z"/>
<path opacity="0.1" enable-background="new    " d="M296.96,366.47l4.77,1.24c0,0,3.53,5.33-4.77,10.29
	c-5.27,3.18-10.33,6.69-15.14,10.51l-24.52,7.41l-4.72-14.72l22.82-17.2L296.96,366.47z"/>
<path fill="#00BFA6" d="M117.99,380.68l-9.54,9.27c0,0,17.21,19.77,30.44,21c13.24,1.23,21.77-15.04,21.77-15.04l-11.46-17.91
	L117.99,380.68z"/>
<path opacity="0.1" enable-background="new    " d="M117.99,380.68l-9.54,9.27c0,0,17.21,19.77,30.44,21
	c13.24,1.23,21.77-15.04,21.77-15.04l-11.46-17.91L117.99,380.68z"/>
<ellipse opacity="0.1" enable-background="new    " cx="208.6" cy="245.78" rx="33.18" ry="32.95"/>
<ellipse fill="#FBBEBE" cx="208.6" cy="243.3" rx="33.18" ry="32.95"/>
<path opacity="0.1" enable-background="new    " d="M268.13,519.91c-7.56,0.86-15,2.51-22.2,4.94c-12.4,4.1-109.6,0.07-110.95,0
	c0-2.33,0-3.71,0-3.71l4.76-11.73l56.38-7.01h26.97c0,0,40.59,9.47,44.79,13.56C268.04,518.42,268.13,519.91,268.13,519.91z"/>
<path opacity="0.1" enable-background="new    " d="M236.81,312.3c-0.83,1.86-4.35,17.91-5.19,19.56s-5.39,27.99-5.81,29.47
	c-0.42,1.48-30.03-6.18-30.03-6.18l-17.83-14.83l-18.32-18.1c0,0-0.54-16.33,12.96-21.57l33.51,38.26l15.09-39.91
	c2.98,0.84,6.08,1.18,9.18,0.99C230.37,299.96,237.64,310.45,236.81,312.3z"/>
<path fill="#00BFA6" d="M206.1,340.12l-34.3-39.18c-4.08-2.59-9.19-2.96-13.61-1c-7.68,3.3-17.22,5.98-19.71,7.62
	c-2.49,1.65-11.83,11.83-11.83,11.83l27.81,72.22l-12.25,47.57c0,0,1.87,24.31-2.9,33.16c-2.9,5.66-4.26,11.98-3.95,18.33
	c0,0,1.45,11.74-0.2,17.91c-0.97,4.12-1.04,8.41-0.21,12.56c0,0,98.54,4.12,110.97,0c7.2-2.43,14.64-4.09,22.2-4.94
	c0,0-2.26-41.2-4.51-51.09s1.87-47.57,1.87-47.57l-2.69-40.37l16.17-41.42c0,0-8.76-26.56-17.89-29.23c0,0-16.59-3.92-20.12-5.77
	c-3.53-1.85-13.9-3.5-13.9-3.5l-5.45,1.81L206.1,340.12z"/>
<path opacity="0.1" enable-background="new    " d="M181.78,370.95l72.18,4.87c1.83,0.12,3.21,1.69,3.08,3.51l-7.75,113.15
	c-0.12,1.81-1.71,3.18-3.53,3.06l-72.18-4.87c-1.83-0.12-3.21-1.69-3.08-3.51l7.75-113.15C178.38,372.2,179.96,370.83,181.78,370.95
	z"/>
<path fill="#3F3D56" d="M184.27,368.5l72.18,4.87c1.83,0.12,3.21,1.69,3.08,3.51l-7.75,113.15c-0.12,1.81-1.71,3.18-3.53,3.06
	l-72.18-4.87c-1.83-0.12-3.21-1.69-3.08-3.51l7.75-113.15C180.86,369.74,182.44,368.37,184.27,368.5z"/>
<rect x="164.59" y="397.03" transform="matrix(0.0674 -0.9977 0.9977 0.0674 -228.7965 618.0884)" fill="#FFFFFF" width="103.25" height="68.8"/>
<rect x="211.55" y="386.24" transform="matrix(0.0693 -0.9976 0.9976 0.0693 -209.2263 604.411)" opacity="0.1" enable-background="new    " width="15.56" height="56.21"/>
<rect x="237.1" y="469.48" transform="matrix(0.0674 -0.9977 0.9977 0.0674 -247.9531 682.6204)" opacity="0.1" enable-background="new    " width="8.11" height="8.92"/>
<rect x="210" y="430.36" transform="matrix(0.0674 -0.9977 0.9977 0.0674 -252.5231 636.2224)" opacity="0.1" enable-background="new    " width="8.11" height="45.65"/>
<rect x="215.2" y="359.24" transform="matrix(0.0674 -0.9977 0.9977 0.0674 -175.621 578.129)" fill="#3F3D56" width="12.46" height="47.54"/>
<rect x="215.2" y="359.24" transform="matrix(0.0674 -0.9977 0.9977 0.0674 -175.621 578.129)" opacity="0.1" enable-background="new    " width="12.46" height="47.54"/>
<path opacity="0.1" enable-background="new    " d="M210.25,517.64c0,0-0.42,60.97-16.6,95.98c0,0,19.51-46.14,19.51-47.98
	s10.78-21.22,7.89-26.98C218.17,532.89,210.25,517.64,210.25,517.64z"/>
<path opacity="0.1" enable-background="new    " d="M211.13,235.06c-0.62-5.4,0.71-10.84,3.75-15.35
	c-0.75,9.35,5.52,17.83,14.73,19.93c-0.78-0.67-1.06-1.75-0.71-2.71c2.31,2.6,4.08,5.68,6.7,7.96s6.54,3.65,9.62,2.03
	c4.18-2.24,4.23-8.14,3.15-12.73c-2.32-9.78-7.09-18.81-13.86-26.28c-3.42-4.57-8.81-7.29-14.55-7.34
	c-6.4-0.49-13.06,0.07-18.8,2.92c-3.23,1.75-6.26,3.85-9.02,6.26l-15.79,12.79c-1.52,1.09-2.82,2.45-3.83,4.01
	c-0.68,1.31-1.08,2.73-1.2,4.2c-0.82,8.54,3.29,16.81,10.62,21.35c-0.16-6.77,3.82-12.96,10.07-15.67c0.97,0.8,1.54,1.98,1.57,3.24
	l3.33-5.89c0.49-1.07,1.27-1.99,2.26-2.65c2.05-1.12,4.61,0.2,6.36,1.78c1.75,1.58,3.45,3.55,5.8,3.8l0.09-8.77"/>
<path fill="#3F3D56" d="M211.13,233.83c-0.62-5.4,0.71-10.84,3.75-15.36c-1.01,8.96,5.78,18.2,14.74,19.93
	c-0.78-0.67-1.06-1.74-0.71-2.7c2.31,2.6,4.08,5.66,6.7,7.96c2.62,2.3,6.54,3.65,9.62,2.02c4.18-2.24,4.23-8.14,3.15-12.72
	c-2.32-9.78-7.09-18.81-13.86-26.28c-2.1-2.54-4.75-4.58-7.75-5.98c-2.17-0.8-4.45-1.26-6.77-1.37c-6.4-0.49-13.06,0.06-18.8,2.91
	c-3.23,1.76-6.25,3.86-9.02,6.27L176.4,221.3c-1.52,1.08-2.82,2.44-3.83,4.01c-0.68,1.31-1.09,2.73-1.2,4.2
	c-0.82,8.54,3.29,16.8,10.62,21.34c-0.15-6.77,3.83-12.96,10.07-15.67c0.96,0.81,1.53,1.98,1.57,3.24l3.32-5.87
	c0.49-1.07,1.27-1.99,2.26-2.65c2.05-1.12,4.61,0.2,6.36,1.78s3.45,3.54,5.8,3.8l0.09-8.78"/>
<path fill="#FBBEBE" d="M226.85,441.66c-2.9-1.46-50.82,5.97-50.82,5.97s-7.89-2.24-26.97-5.35c-19.08-3.11-20.3-21.63-20.3-21.63
	l-2.09-37.07l6.44-5.6l27.58,17.91c0,0,0.43,9.06,0,10.69c-0.27,1.12-0.99,2.45-0.92,3.36c0.04,0.5,0.42,0.92,0.92,1.01
	c1.87,0.47,27.38,4.57,27.38,4.57s59.12-4.02,73.86,15.75c1.17,1.45,2.05,3.11,2.6,4.88C268.19,449.66,229.48,442.94,226.85,441.66z
	"/>
<path opacity="0.1" enable-background="new    " d="M264.57,436.23c-2.26,1-3.65,1.71-3.65,1.71s-21.15-0.62-33.04-4.89
	c-11.88-4.28-26.33-3.52-26.33-3.52s-49.52-8.46-41.84-19.51c0.04,0.5,0.42,0.92,0.92,1.01c1.87,0.47,27.38,4.57,27.38,4.57
	s59.12-4.02,73.86,15.75C263.07,432.79,263.98,434.44,264.57,436.23z"/>
<path fill="#FBBEBE" d="M285.14,371c0,0,2.91,20.39,3.11,22.04c0.2,1.66,1.25,21.62,0,23.89c-1.25,2.27-3.11,5.97-3.11,5.97
	s2.07,4.32-6.22,5.98s-18.04,6.58-18.04,6.58s-21.16-0.62-32.98-4.94s-26.34-3.5-26.34-3.5s-62.86-10.71-35.89-23.79
	s46.05,4.63,46.05,4.63l30.07-1.85c0,0,11.21-6.81,14.32-6.18c2.2,0.28,4.43-0.08,6.43-1.03l0.21-21.63L285.14,371z"/>
<path opacity="0.1" enable-background="new    " d="M132.64,320.96l-6.02-0.31l-18.24,70.53c0,0,19.7-4.95,28.19,0
	s24.06,5.97,24.06,5.97l-5.81-56.22L132.64,320.96z"/>
<path fill="#00BFA6" d="M132.64,319.71l-6.02-0.31l-18.24,70.53c0,0,19.7-4.95,28.19,0s24.06,5.97,24.06,5.97l-5.81-56.22
	L132.64,319.71z"/>
<path opacity="0.1" enable-background="new    " d="M270.62,335.16l8.29,1.86c0,0,21.16,30.23,22.82,31.92
	c1.66,1.69-7.89,7.84-11.83,7.84s-23.23,2.24-28.83,7.41c-5.6,5.17-3.27-20.86-3.27-21.45c0-0.59,6.96-17.02,6.96-17.02
	L270.62,335.16z"/>
<path fill="#00BFA6" d="M270.62,333.93l8.29,1.85c0,0,21.16,30.28,22.82,31.93c1.66,1.65-7.89,7.84-11.83,7.84
	s-23.23,2.24-28.83,7.41c-5.6,5.17-3.27-20.86-3.27-21.45c0-0.59,7-17.07,7-17.07L270.62,333.93z"/>
<g opacity="0.1">
	<path d="M214.83,218.57c-0.05-0.86-0.03-1.72,0.06-2.57c-1.72,2.56-2.9,5.43-3.47,8.45v2.6c0,0,0-0.06,0-0.09v0.62
		c0,1.81,0,3.64-0.06,5.45h-0.16v0.84c0-0.29,0-0.57-0.06-0.86c-2.26-0.36-3.87-2.24-5.55-3.74s-4.31-2.93-6.36-1.78
		c-0.98,0.66-1.76,1.58-2.26,2.65l-3.35,5.87c-0.03-1.25-0.6-2.42-1.57-3.22c-6.25,2.71-10.22,8.91-10.07,15.67
		c-6.25-3.89-10.23-10.53-10.7-17.83c-0.4,8.19,3.69,15.96,10.7,20.3c-0.15-6.77,3.83-12.96,10.07-15.67
		c0.96,0.81,1.53,1.98,1.57,3.24l3.32-5.87c0.49-1.07,1.27-1.99,2.26-2.65c2.05-1.12,4.61,0.2,6.36,1.78s3.45,3.54,5.8,3.8
		c0-2.87,0.03-5.72,0.09-8.58C212,223.97,213.15,221.12,214.83,218.57z"/>
	<path d="M211.02,229.85c0.06-0.76,0.15-1.52,0.26-2.24l0.12-3.09C211.07,226.27,210.94,228.06,211.02,229.85z"/>
	<path d="M245.23,243.2c-3.08,1.63-7,0.27-9.62-2.02c-2.62-2.28-4.39-5.36-6.7-7.96c-0.35,0.96-0.07,2.04,0.71,2.71
		c-0.23,0-0.44-0.11-0.65-0.17c2.26,2.57,4.05,5.6,6.64,7.84c2.59,2.24,6.54,3.65,9.62,2.02c3.08-1.63,3.96-5.46,3.69-9.19
		C248.72,239.36,247.66,241.9,245.23,243.2z"/>
	<path d="M228.9,235.75c-7.72-2.09-13.32-8.72-14.05-16.64c-0.64,8.79,6.03,17.6,14.77,19.29
		C228.86,237.74,228.58,236.69,228.9,235.75z"/>
</g>
<linearGradient id="SVGID_2_" gradientUnits="userSpaceOnUse" x1="667.7106" y1="202.2091" x2="667.7106" y2="891.079" gradientTransform="matrix(1 0 0 -1 -15.95 1063.4399)">
	<stop  offset="0" style="stop-color:#808080;stop-opacity:0.25"/>
	<stop  offset="0.54" style="stop-color:#808080;stop-opacity:0.12"/>
	<stop  offset="1" style="stop-color:#808080;stop-opacity:0.1"/>
</linearGradient>
<path fill="url(#SVGID_2_)" d="M770.41,418.73c0,0-4.44-0.62-4.44-7.03c0-6.42-3.18-18.43-3.18-18.43l0,0c0,0-2.75-20.9-6.55-24.22
	c-3.8-3.31-8.68-22.77-8.68-22.77s-0.83-10.56-2.54-12.83s-4-7.84-7.4-15.77c-3.39-7.94-17.51-13.38-17.51-13.38
	s-25.58-14.73-32.83-19.54l0,0c-0.66-0.4-1.28-0.86-1.85-1.39c-1.26-1.63-6.77-1.67-6.77-1.67c-0.58-3.62-1.13-7.76-1.31-11.51
	c0-0.4,0-0.81,0-1.21c8.08-4.74,14.17-12.23,17.15-21.07c0.14-0.43,0.25-0.86,0.37-1.3c1-0.31,1.82-1.02,2.26-1.97
	c0.64-1.44,0.67-3.12,1.48-4.48c0.95-1.59,2.75-2.44,4.17-3.63c3.59-3.03,4.51-8.13,4.34-12.75c-0.11-3.76-0.72-7.55-0.48-11.27
	c0-0.31,0-0.63,0.07-0.94c0.07-0.55,0.15-1.12,0.25-1.66c0.55-2.78,1.76-5.4,2.44-8.15c0.68-2.75,0.74-5.86-0.83-8.23
	c-2.31-3.48-7.13-4.18-11.35-4.48c-4.79-0.4-9.02,0.11-12.14-3.84c-1.43-2.06-3.05-4-4.83-5.78c-0.63-0.58-6.77-4.31-6.77-4.55
	c-6-2.77-12.81-3.29-19.17-1.47c-3.19,0.92-6.18,2.42-9.42,3.17c-6.95,1.63-14.95-0.13-20.86,3.82c-3.29,2.24-5.27,5.81-7.11,9.27
	c-1.5,2.85-3.03,5.71-4.58,8.56c-2.5,4.69-5.03,9.46-6.08,14.66c-0.22,1.13-0.36,2.28-0.42,3.44l0,0c0,0.41,0,0.83,0,1.24
	c0,0.18,0,0.36,0,0.54c0,0.38,0,0.76,0.07,1.12c0.07,0.36,0,0.46,0.08,0.69s0.1,0.76,0.17,1.12c0.07,0.36,0.2,1,0.34,1.48
	c0,0.21,0.14,0.41,0.2,0.63c0.07,0.21,0.25,0.75,0.39,1.12c0.15,0.37,0.16,0.39,0.25,0.58c0.17,0.39,0.37,0.77,0.58,1.12
	c0.09,0.15,0.16,0.29,0.25,0.44c0.31,0.52,0.66,1.03,1.04,1.5c2.4,2.99,5.96,4.89,8.59,7.69c0,0.11,0,0.22,0,0.34
	c0,0.3,0,0.6,0,0.92c0.33,12.67,6.95,24.37,17.68,31.24c0,0.43,0.06,0.86,0.08,1.3c0.22,3.32,0.18,6.65-0.12,9.96
	c-0.93-1.08-2.31-1.69-3.74-1.66c-0.48-0.02-0.97,0.02-1.44,0.12l-0.1-0.08l0,0v0.1c-2.48,0.6-5.54,3.17-8.46,10.46
	c0,0-8.89,9.94-15.65,9.53c-6.77-0.41-23.89,10.36-23.89,10.36s-16.71,10.76-20.3,21.73c-2,6.22-4.41,12.31-7.21,18.23l-20.71,42.23
	l0,0l-3.8,33.59c0,0,2.11,14.9,1.69,17.19c-0.42,2.28,8.67,22.77,8.67,22.77s30.03,52.37,42.29,55.06l0.88-0.6
	c0.53,0.26,1.08,0.47,1.66,0.6l2.53-1.76c0.16,1.97,0.09,3.95-0.2,5.9c-1.68,5.18,0.64,38.93,3.6,45.54
	c2.95,6.62,1.91,93.38,1.91,93.38l-0.42,7.65c0,0,0,0.25,0.1,0.67l-0.1,1.81l0.3,0.16c0.32,2.43,0.21,4.9-0.3,7.3
	c-1.06,3.36-1.49,12.84-1.49,12.84s-8.46,53.6-4.44,64.37c4.01,10.77,7.41,22.57,7.41,22.57s4.23,13.43,0.2,15.67
	c-4.03,2.24-15.43,6.21-13.1,11.8c2.14,5.17,10.27,19.03,11.48,21.06l-0.1,1.12l-1.66,17.83c0.27,2.35,0.91,4.65,1.91,6.81
	c1.82,3.9,5.33,7.92,12.05,7.48c1.13-0.08,2.42-0.2,3.7-0.37c12.28-1.65,27.39-7.09,27.39-7.09c-0.78-0.49-1.5-1.08-2.13-1.76l0,0
	c-1.22-1.17-1.9-2.79-1.88-4.48c0.18-3.26-5.94-18.72-7.48-22.54l-0.35-0.85c0,0,13.96-14.5,11.64-27.33c0,0-15.45-8.96-10.36-13.88
	c5.09-4.93,14.17-19.03,14.17-19.03s0.42-52.79,0-60.66c-0.43-5.47-0.17-10.98,0.78-16.39c0.17-0.81,0.37-1.6,0.59-2.4
	c7.04,1.05,14.15,1.59,21.27,1.6c2.6,0,5.23-0.05,7.89-0.16c0,0.75,0.03,1.55,0.1,2.42c0.59,13.08,1.68,36.02,2.57,44.54
	c1.26,12.2,8.24,45.13,8.24,45.13s-13.32,8.48,2.32,29.4c0,0,0,7.57-1.04,8.68l0,0c-1.11,3.59-2,7.24-2.67,10.94
	c-0.65,3.93-0.92,7.93,0.14,9.99c2.54,4.95,17.76,4.55,17.76,4.55l0,0c0.12-0.03,0.25-0.05,0.37-0.06
	c5.8-0.61,11.61,1.13,16.11,4.81c5.78,4.61,27.73,2.6,39.62,1.12c4.66-0.59,7.77-1.12,7.77-1.12c0.15-0.52,0.2-1.07,0.16-1.61l0,0
	c-0.12-2.9-2.41-9.26-17.93-14.93c0,0-14.59-9.74-14.39-18.23H729h-1.68c1.06-0.03,1.8-0.03,1.8-0.03s-5.72-20.7-3.38-22.39
	c2.33-1.69-4.66-24.63-4.66-24.63s-4-38.51-4.23-41.2c0.01-2.32,0.37-4.62,1.06-6.83l-1.06-21.13c0,0-0.2-7.02,0-9.3
	c-0.02-1.98-0.18-3.96-0.47-5.92c-0.1-0.78-0.2-1.6-0.32-2.41c5.47-1.38,9.02-2.64,9.02-2.64l-0.63-73.5
	c4.65-8.96,5.5-28.62,5.48-42.54c0-8.96-0.41-15.58-0.41-15.58l6.35-10.29c0,0,1.47-12.32-0.86-15.01
	c-1.03-1.22-0.56-2.49,0.28-3.53c0.45-0.36,0.92-0.69,1.41-0.99c-0.06-0.08-0.1-0.16-0.15-0.25c0.44-0.37,0.91-0.7,1.41-1
	c0,0-2.26-3.47-0.24-4.94c1.89,1.28,3.59,2.3,4.87,3.02c-0.09,0.82-0.18,1.29-0.18,1.29l0.54-1.12c1.24,0.69,2,1.12,2,1.12
	s9.95-19.67,9.73-22.56c-0.21-2.89,6.77-15.11,6.77-15.11s0.85-6.43,4.66-9.11c3.81-2.69,2.95-22.16,2.95-22.16
	s1.06-10.14,3.6-14.27C775.21,424.35,770.41,418.73,770.41,418.73z M580.12,410.09l0.19,4.69c-1.13-1.8-1.94-3.09-1.94-3.09
	L580.12,410.09z"/>
<path fill="#FFFFFF" d="M745.55,503.19l-2.44,10.3c0,0-19.51-9.91-23.01-22.45s5.87-17.32,5.87-17.32l18.19,7.64L745.55,503.19z"/>
<path opacity="0.1" enable-background="new    " d="M745.55,503.19l-2.44,10.3c0,0-19.51-9.91-23.01-22.45s5.87-17.32,5.87-17.32
	l18.19,7.64L745.55,503.19z"/>
<path fill="#FFFFFF" d="M636.08,853.73c0,0-18.04,6.58-30.44,7.41c-6.59,0.44-10.05-3.57-11.83-7.43c-0.97-2.13-1.6-4.4-1.87-6.72
	l1.64-17.74l0.86-9.44l26.35-6.81l3.73,11.34l0.35,0.85c1.49,3.8,7.51,19.18,7.33,22.39c-0.03,1.68,0.63,3.3,1.84,4.48
	C634.64,852.7,635.33,853.26,636.08,853.73z"/>
<path fill="#FFFFFF" d="M759.25,844.71c0.05,0.54-0.01,1.09-0.16,1.61c0,0-38.59,6.38-46.48,0c-4.49-3.77-10.36-5.49-16.19-4.74
	c0,0-14.93,0.4-17.42-4.48c-1.04-2.05-0.77-6.02-0.12-9.93c0.66-3.68,1.53-7.31,2.62-10.88l0.6-0.47l3.55-2.83l41.58-1.22h0.32
	c-0.2,8.44,14.11,18.13,14.11,18.13C756.89,835.49,759.13,841.82,759.25,844.71z"/>
<path opacity="0.1" enable-background="new    " d="M759.26,844.71c0.04,0.54-0.02,1.09-0.17,1.61c0,0-38.59,6.38-46.47,0
	c-4.49-3.77-10.37-5.49-16.2-4.74c0,0-14.94,0.4-17.43-4.48c-1.03-2.05-0.77-6.02-0.12-9.94c5.75,0.57,14.83,1.99,18.39,5.4
	c5.39,5.15,14.52,10.3,20.12,10.71C721.8,843.54,748.08,844.37,759.26,844.71z"/>
<path opacity="0.1" enable-background="new    " d="M636.08,853.73c0,0-18.04,6.58-30.44,7.41c-6.59,0.44-10.05-3.57-11.83-7.43
	c4.6,1.53,10.97,3.13,14.32,1.67c3.97-1.76,18.04-2.88,25.93-3.36C634.66,852.67,635.33,853.25,636.08,853.73z"/>
<path fill="#CF6F80" d="M662.85,323.18c-14.88-5.74-34.03-24.72-29.25-33.59c1.06-2.24,1.69-4.65,1.86-7.12
	c0.31-3.35,0.35-6.72,0.14-10.08c-0.34-5.5-1-10.98-2-16.4c0,0,46.47,1.04,43.76,7.84c-0.79,2-0.92,5.46-0.7,9.33
	c0.23,3.86,0.78,8.26,1.36,11.97c0.8,5.07,1.62,8.96,1.62,8.96s-2.85,3.95-4.51,4.16C673.48,298.46,684.2,331.41,662.85,323.18z"/>
<path opacity="0.1" enable-background="new    " d="M624.81,825.14l-0.35,0.38c-13.89-16.68-30.69,4.12-30.69,4.12l-0.25-0.45
	l0.86-9.44l26.35-6.81l3.73,11.34L624.81,825.14z"/>
<path opacity="0.1" enable-background="new    " d="M727.57,812.95c0,0-10.15-0.2-15.56,4.55c-5.41,4.75-31.57,1.02-30.44,0
	c0.33-0.52,0.53-1.1,0.59-1.71l3.55-2.83l41.58-1.22C727.45,812.51,727.57,812.95,727.57,812.95z"/>
<path fill="#00BFA6" d="M642.1,681.95c-0.75,1.86-1.33,3.78-1.71,5.74c-0.94,5.38-1.2,10.86-0.78,16.3c0.42,7.84,0,60.36,0,60.36
	s-8.92,14.01-13.9,18.94c-4.98,4.94,10.15,13.8,10.15,13.8c2.26,12.77-11.41,27.19-11.41,27.19c-13.89-16.68-30.69,4.11-30.69,4.11
	s-9.13-15.67-11.41-21.27c-2.28-5.6,8.92-9.46,12.85-11.74c3.94-2.28-0.2-15.67-0.2-15.67s-3.32-11.74-7.26-22.46
	s4.35-64.04,4.35-64.04s0.43-9.48,1.45-12.79c0.51-2.38,0.61-4.84,0.3-7.25c-0.07-0.82-0.15-1.49-0.2-1.96
	c-0.06-0.47-0.1-0.67-0.1-0.67l0.16-0.27l5.64-10.43C599.33,659.83,644.81,675.37,642.1,681.95z"/>
<path fill="#00BFA6" d="M727.57,811.71c0,0-10.15-0.21-15.56,4.48s-31.57,1.03-30.44,0s1.03-8.64,1.03-8.64
	c-15.35-20.81-2.26-29.25-2.26-29.25s-6.84-32.75-8.08-44.89c-0.87-8.48-1.94-31.35-2.51-44.3c-0.25-5.6-0.39-9.46-0.39-9.46
	l12.43-2.45l1.61-0.31l30.24-6.03c0,0,0.83,5.6,1.4,10.18c0.29,1.95,0.44,3.93,0.46,5.9c-0.19,2.24,0,9.26,0,9.26l1.04,21
	c-0.67,2.2-1.02,4.49-1.04,6.8c0.21,2.69,4.15,40.99,4.15,40.99s6.84,22.86,4.51,24.51C721.81,791.11,727.57,811.71,727.57,811.71z"
	/>
<path opacity="0.1" enable-background="new    " d="M677.36,263.87c-0.79,2-0.92,5.46-0.7,9.33c-12.7,7.59-28.66,7.3-41.07-0.76
	c-0.34-5.5-1-10.98-2-16.4C633.6,256.03,680.06,257.07,677.36,263.87z"/>
<path fill="#CF6F80" d="M695.3,239.15c0.26,21.15-16.81,38.51-38.11,38.76c-21.3,0.25-38.78-16.69-39.04-37.84c0-0.31,0-0.6,0-0.92
	c0-21.16,17.28-38.31,38.59-38.31c21.31,0,38.59,17.15,38.59,38.31H695.3z"/>
<path opacity="0.1" enable-background="new    " d="M662.85,323.18c-14.88-5.74-34.03-24.72-29.25-33.59
	c1.06-2.24,1.69-4.65,1.86-7.12l20.38,16.64l12.61,10.27l9.58-24.22c0.8,5.07,1.62,8.96,1.62,8.96s-2.85,3.95-4.51,4.16
	C673.48,298.5,684.2,331.41,662.85,323.18z"/>
<polygon fill="#00BFA6" points="715.54,396.7 698.52,680.51 676.33,681.96 618.86,517.39 628.29,322.02 630.28,280.74 
	655.83,301.58 668.44,311.84 678.31,286.91 696.65,302.79 "/>
<path opacity="0.1" enable-background="new    " d="M642.1,681.95c-0.75,1.86-1.33,3.78-1.71,5.74
	c-16.16-2.47-31.86-7.34-46.57-14.43l-0.3-0.16l0.1-1.8v-0.94l5.64-10.43C599.25,659.92,644.81,675.37,642.1,681.95z"/>
<path opacity="0.1" enable-background="new    " d="M682.14,687.73c-4.13,0.7-8.29,1.18-12.47,1.42c-0.25-5.6-0.39-9.46-0.39-9.46
	l12.49-2.51L682.14,687.73z"/>
<path opacity="0.1" enable-background="new    " d="M715.06,681.02c-8.02,2.07-20.41,4.4-31.48,2.94l-0.16-7.09l30.24-6.03
	C713.67,670.84,714.47,676.39,715.06,681.02z"/>
<path opacity="0.1" enable-background="new    " d="M683.38,685.26c-46.23,7.84-88.57-14.63-88.57-14.63l0.41-7.61
	c0,0,1.05-86.31-1.86-92.92c-2.91-6.62-5.18-40.12-3.53-45.24c1.65-5.12-6.01-82.37-6.01-82.37l-1.24-31.35l-45.43-18.33l20.3-42.02
	c2.74-5.89,5.1-11.95,7.06-18.14c3.53-10.92,19.91-21.63,19.91-21.63s16.8-10.7,23.44-10.3c6.64,0.4,15.35-9.47,15.35-9.47
	c6.43-16.27,12.25-8.96,12.25-8.96c0,0.78,0,0-0.32,2.41c-2.26,17.86,36.47,74.28,37.02,75.29l0,0l3.73,89.18l3.73,112.86
	L683.38,685.26z"/>
<path fill="#FFFFFF" d="M682.14,685.26c-46.23,7.84-88.58-14.63-88.58-14.63l0.42-7.61c0,0,1.04-86.31-1.87-92.92
	c-2.91-6.62-5.18-40.16-3.52-45.32c1.66-5.16-6.04-82.33-6.04-82.33l-1.25-31.35l-45.42-18.33l20.3-42.02
	c2.73-5.89,5.09-11.94,7.06-18.13c3.53-10.88,19.97-21.61,19.97-21.61s16.8-10.7,23.43-10.3c6.63,0.4,15.38-9.46,15.38-9.46
	c6.44-16.27,13.53-8.96,13.53-8.96c0,0.78-0.68,1.12-0.32,2.41c4.96,17.32,35.23,74.28,35.78,75.29l0,0l3.73,89.18l3.65,112.92
	L682.14,685.26z"/>
<path opacity="0.1" enable-background="new    " d="M669.68,362.51c-4.97-2.06-31.31-31.92-31.31-31.92v-6.8
	c-0.96-2.24-6.66-0.87-11.28,0.69l1.98-41.28l2.26,1.86C636.26,302.38,669.14,361.52,669.68,362.51z"/>
<path fill="#FFFFFF" d="M670.93,360.05c-4.98-2.07-31.32-31.92-31.32-31.92v-6.81c-0.96-2.24-6.65-0.87-11.28,0.69l1.95-41.23
	l2.26,1.85C637.51,299.92,670.38,359.04,670.93,360.05z"/>
<path opacity="0.1" enable-background="new    " d="M594.81,508.95c0.62,0,32.15-3.29,32.15-3.29s19.09,37.28,17.84,46.34
	s-3.52,17.1-11.2,15.67s-41.33,1.12-41.33,1.12L594.81,508.95z"/>
<path fill="#FFFFFF" d="M593.56,506.48c0.63,0,32.16-3.29,32.16-3.29s19.08,37.34,17.84,46.29s-3.53,17.1-11.2,15.67
	s-41.34,1.12-41.34,1.12L593.56,506.48z"/>
<path fill="#CF6F80" d="M617.32,489.02c0,0,28.93,15.45,29.55,20.15c0.62,4.7-14.73-2.06-18.04-2.89c-2.18-0.51-4.4-0.86-6.64-1.03
	l-22.11,0.59L617.32,489.02z"/>
<ellipse opacity="0.1" enable-background="new    " cx="661.6" cy="361.42" rx="3.04" ry="3.02"/>
<ellipse fill="#3F3D56" cx="661.6" cy="360.18" rx="3.04" ry="3.02"/>
<ellipse opacity="0.1" enable-background="new    " cx="667.2" cy="492.27" rx="3.04" ry="3.02"/>
<ellipse fill="#3F3D56" cx="667.2" cy="491.03" rx="3.04" ry="3.02"/>
<ellipse opacity="0.1" enable-background="new    " cx="664.64" cy="426.84" rx="3.04" ry="3.02"/>
<ellipse fill="#3F3D56" cx="664.64" cy="425.61" rx="3.04" ry="3.02"/>
<path fill="#FFFFFF" d="M734.82,504.63c0,0,2.07,3.09,0,4.48c-2.07,1.39,0.2,4.95,0.2,4.95s-5.18,3-2.9,5.72
	c2.28,2.72,0.83,14.93,0.83,14.93L726.73,545c0,0,0.37,6.59,0.39,15.51c0,13.9-0.82,33.45-5.38,42.36l0.61,73.12
	c0,0-21.8,7.92-40.04,5.5l-2.71-117.33c0,0,3.95-66.54,5.4-79.3c0.85-6.63,1.2-13.31,1.04-19.98c0,0-0.62-19.97-2.71-29.23
	c0,0-2.26-40.17-2.48-51.29c-0.1-5.32,0.18-20.83,0.5-35.59c0.35-16.13,0.74-31.35,0.74-31.35l-4.12-32.34c0,0,4.12-0.4,5.36,1.23
	c0.56,0.52,1.16,0.98,1.8,1.38l0,0c7.11,4.77,32.21,19.44,32.21,19.44s13.89,5.49,17.22,13.35c3.33,7.86,5.64,13.43,7.25,15.67
	s2.49,12.76,2.49,12.76s4.78,19.37,8.51,22.65c3.73,3.28,6.42,24.1,6.42,24.1l-32.98,25.75c0,0-2.9,42.83-3.52,44.49
	C722.13,467.55,734.82,504.63,734.82,504.63z"/>
<path fill="#FFFFFF" d="M736.07,504.63c0,0,2.06,3.09,0,4.48c-2.06,1.39,0.19,4.95,0.19,4.95s-5.18,3-2.9,5.72
	c2.28,2.72,0.83,14.93,0.83,14.93L728,545c0,0,0.37,6.59,0.41,15.51c0,13.9-0.82,33.45-5.38,42.36l0.62,73.12
	c0,0-21.8,7.92-40.04,5.5l-2.69-117.33c0,0,3.94-66.54,5.4-79.3c0.85-6.63,1.2-13.31,1.03-19.98c0,0-0.62-19.97-2.69-29.23
	c0,0-2.26-40.17-2.49-51.29c-0.1-5.32,0.18-20.83,0.5-35.59c0.35-16.13,0.74-31.35,0.74-31.35l-5.43-32.78c0,0,5.43,0,6.69,1.67
	c0.55,0.52,1.16,0.98,1.8,1.38l0,0c7.1,4.77,32.2,19.44,32.2,19.44s13.86,5.49,17.24,13.35s5.64,13.43,7.25,15.67
	c1.61,2.24,2.49,12.76,2.49,12.76s4.78,19.37,8.51,22.65s6.43,24.1,6.43,24.1l-32.98,25.75c0,0-2.9,42.83-3.53,44.49
	C723.43,467.55,736.07,504.63,736.07,504.63z"/>
<path opacity="0.1" enable-background="new    " d="M696.57,326.92l2.99,8.62l-15.68,15.67c0.35-16.13,0.74-31.35,0.74-31.35
	l-5.43-32.77c0,0,5.43,0,6.69,1.67c0.55,0.52,1.16,0.98,1.8,1.38l0,0L701,328.31L696.57,326.92z"/>
<path fill="#FFFFFF" d="M695.3,324.45l2.99,8.61l-15.67,15.67c0.34-16.13,0.74-31.35,0.74-31.35l-5.45-32.78c0,0,5.45,0,6.69,1.67
	c0.55,0.52,1.16,0.98,1.8,1.38l0,0l13.41,38.2L695.3,324.45z"/>
<path opacity="0.1" enable-background="new    " d="M695.3,239.15c0,4.03-0.63,8.04-1.89,11.88c-0.43,0.07-0.87-0.03-1.22-0.29
	c-0.3-10.08-5.29-19.55-11.43-27.6c-1.73-2.43-3.82-4.58-6.2-6.38c-2.41-1.8-5.41-2.64-8.41-2.36c-3.38,0.46-6.37,2.74-9.79,3.03
	c-4.51,0.37-8.55-2.73-13.02-2.88c-3.68,0.03-7.17,1.64-9.57,4.41c-2.35,2.76-4.1,5.97-5.13,9.44c-1.77,5.26-2.74,10.76-2.86,16.3
	c-0.06,3.13-0.36,7.06-3.29,8.21c0.45-4.66-1.09-9.29-4.25-12.76l-0.07-0.08c0-0.31,0-0.6,0-0.92c0-21.16,17.28-38.31,38.59-38.31
	c21.31,0,38.59,17.15,38.59,38.31L695.3,239.15z"/>
<path fill="#512E4E" d="M672.75,178.32c-5.86-2.74-12.52-3.25-18.74-1.46c-3.12,0.92-6.07,2.41-9.23,3.16
	c-6.77,1.62-14.66-0.13-20.47,3.8c-3.22,2.24-5.16,5.78-6.97,9.23l-4.51,8.52c-2.46,4.67-4.94,9.42-5.96,14.55
	s-0.41,10.89,2.88,15.04c2.38,3,5.92,4.89,8.51,7.72c3.15,3.49,4.69,8.13,4.24,12.8c2.93-1.12,3.22-5.07,3.29-8.21
	c0.13-5.55,1.09-11.04,2.86-16.3c1.03-3.47,2.78-6.68,5.13-9.44c2.4-2.78,5.89-4.39,9.57-4.42c4.51,0.16,8.56,3.26,13.02,2.88
	c3.38-0.28,6.38-2.56,9.79-3.02c3-0.28,6,0.56,8.41,2.36c2.38,1.8,4.47,3.95,6.19,6.38c6.16,8.06,11.15,17.49,11.44,27.6
	c1.27,0.92,3.11-0.29,3.74-1.72c0.63-1.43,0.65-3.11,1.45-4.48c0.92-1.58,2.69-2.43,4.08-3.62c3.52-3.01,4.4-8.08,4.26-12.68
	c-0.14-4.6-1.04-9.27-0.16-13.79c0.53-2.77,1.73-5.37,2.38-8.12c0.65-2.74,0.73-5.82-0.81-8.18c-2.26-3.46-7-4.15-11.14-4.48
	c-4.7-0.4-8.91,0.11-11.91-3.82c-1.41-2.05-3-3.97-4.74-5.75C678.76,182.26,672.75,178.57,672.75,178.32z"/>
<path opacity="0.1" enable-background="new    " d="M550.16,414.42l-11.77-21.62l-3.73,33.36c0,0,2.07,14.82,1.66,17.1
	c-0.42,2.27,8.5,22.65,8.5,22.65s29.46,52.12,41.49,54.79l40.59-28.84l-10.78-13.59c0,0-3.73-1.44-4.67,0
	c0,0-20.03-34.19-22.09-36.65s-1.67-7.42-1.67-7.42s-3.11-3.29-2.07-6.38s-5.95-13.79-5.95-13.79l6.43-5.97L550.16,414.42z"/>
<path fill="#FFFFFF" d="M539.01,390.32l-3.11,2.47l-3.73,33.36c0,0,2.07,14.82,1.66,17.1c-0.42,2.27,8.51,22.65,8.51,22.65
	s29.45,52.12,41.48,54.79l40.66-28.84l-10.79-13.59c0,0-3.73-1.44-4.67,0c0,0-20.01-34.19-22.09-36.65
	c-2.07-2.46-1.66-7.42-1.66-7.42s-3.11-3.29-2.07-6.38c1.04-3.09-6.02-13.79-6.02-13.79l6.43-5.97L539.01,390.32z"/>
<path opacity="0.1" enable-background="new    " d="M732.12,521.07c2.26,2.72,0.83,14.95,0.83,14.95l-6.22,10.22
	c0,0,0.37,6.61,0.39,15.52L716.67,565c-3.28,1.02-6.77-0.8-7.79-4.06c-0.21-0.66-0.3-1.34-0.28-2.03l1.82-57.77l24.41,9.26
	c-2.07,1.43,0.2,4.95,0.2,4.95S729.85,518.34,732.12,521.07z"/>
<path fill="#FFFFFF" d="M733.36,519.83c2.26,2.71,0.83,14.93,0.83,14.93L728,545c0,0,0.37,6.59,0.41,15.51l-10.66,3.3
	c-3.2,1-6.61-0.77-7.62-3.95c-0.2-0.64-0.3-1.32-0.28-1.99l1.82-57.97l24.4,9.28c-2.09,1.43,0.19,4.95,0.19,4.95
	S731.09,517.11,733.36,519.83z"/>
<path fill="#CF6F80" d="M741.46,492.27c0,0-1.66,10.51-5.81,11.13c-4.15,0.62-6.01,17.01-10.15,16.44s-1.4-15.25-1.25-18.09
	c0.15-2.84-4.51-14.62-1.04-17.3c3.47-2.68,14.52,0,14.52,0L741.46,492.27z"/>
<path opacity="0.1" enable-background="new    " d="M750.23,411.33l7.81-15.67c0,0,3.12,11.95,3.12,18.33
	c0,6.38,4.35,7.01,4.35,7.01s4.77,5.6,2.26,9.68c-2.51,4.09-3.52,14.21-3.52,14.21s0.82,19.36-2.91,22.03
	c-3.73,2.68-4.57,9.07-4.57,9.07s-6.84,12.15-6.63,15.04c0.21,2.89-9.54,22.45-9.54,22.45s4.77-24.31-23.02-34.81
	c0,0-0.21-8.24,1.86-10.5c2.07-2.26,5.31-3.36,3.28-14.73c-2.03-11.37-0.59-25.09-0.59-27.83s6.22-19.84,6.22-19.84L750.23,411.33z"
	/>
<path fill="#FFFFFF" d="M753.71,393.41l6.83,2.24c0,0,3.12,11.95,3.12,18.33c0,6.38,4.35,7.01,4.35,7.01s4.77,5.6,2.26,9.68
	c-2.51,4.09-3.53,14.21-3.53,14.21s0.83,19.36-2.9,22.03c-3.73,2.68-4.51,9.07-4.51,9.07s-6.84,12.15-6.63,15.04
	s-9.55,22.45-9.55,22.45s4.77-24.31-23.02-34.81c0,0-0.2-8.24,1.87-10.5c2.07-2.26,5.31-3.36,3.28-14.73
	c-2.03-11.37-0.59-25.09-0.59-27.83s6.22-19.84,6.22-19.84L753.71,393.41z"/>
<path opacity="0.1" enable-background="new    " d="M602.75,799.67c0,0,10.89-6.8,18.04-1.86
	C627.94,802.75,602.75,799.67,602.75,799.67z"/>
<path opacity="0.1" enable-background="new    " d="M687.41,778.65c0,0,9.64-1.23,17.74,7.42
	C713.24,794.73,687.41,778.65,687.41,778.65z"/>
<g opacity="0.1">
	<path d="M701.49,237.22c-1.39,1.2-3.17,2.04-4.09,3.62c-0.79,1.35-0.81,3.03-1.44,4.48c-0.63,1.44-2.47,2.64-3.75,1.72
		c-0.29-10.08-5.29-19.54-11.43-27.6c-1.72-2.43-3.81-4.58-6.19-6.37c-2.41-1.81-5.42-2.65-8.42-2.37
		c-3.38,0.46-6.36,2.74-9.78,3.03c-4.51,0.37-8.56-2.73-13.03-2.88c-3.68,0.03-7.17,1.64-9.56,4.41c-2.35,2.76-4.1,5.97-5.13,9.44
		c-1.77,5.26-2.74,10.76-2.86,16.3c-0.07,3.12-0.36,7.02-3.27,8.18c0.07,0.83,0.07,1.67,0,2.5c2.94-1.12,3.24-5.07,3.3-8.21
		c0.13-5.55,1.09-11.04,2.86-16.3c1.03-3.47,2.78-6.68,5.13-9.44c2.4-2.77,5.88-4.39,9.56-4.42c4.51,0.16,8.57,3.26,13.03,2.88
		c3.38-0.28,6.38-2.56,9.78-3.02c3.01-0.28,6.01,0.56,8.42,2.36c2.38,1.8,4.47,3.95,6.19,6.38c6.15,8.06,11.14,17.49,11.43,27.6
		c1.29,0.92,3.12-0.29,3.75-1.72c0.63-1.43,0.65-3.11,1.44-4.48c0.92-1.58,2.71-2.43,4.09-3.62c3.52-3.01,4.4-8.08,4.26-12.68
		c0-0.15,0-0.28,0-0.43C705.56,230.6,704.49,234.66,701.49,237.22z"/>
	<path d="M618.24,236.44c-2.58-2.83-6.12-4.74-8.5-7.74c-2.01-2.65-3.15-5.84-3.28-9.16c-0.35,4.14,0.81,8.27,3.28,11.63
		c2.38,3,5.92,4.89,8.5,7.72c2.49,2.77,3.99,6.28,4.26,9.99C622.85,244.34,621.31,239.84,618.24,236.44z"/>
	<path d="M707.97,202.63c-0.67,2.74-1.85,5.35-2.39,8.12c-0.33,1.87-0.44,3.77-0.35,5.66c0.04-1.07,0.15-2.14,0.35-3.19
		c0.54-2.77,1.73-5.37,2.39-8.12c0.38-1.51,0.51-3.08,0.37-4.63C708.27,201.2,708.15,201.92,707.97,202.63z"/>
</g>
</svg>
