<?xml version="1.0" encoding="iso-8859-1"?>
<!-- Generator: Adobe Illustrator 19.0.0, SVG Export Plug-In . SVG Version: 6.00 Build 0)  -->
<svg version="1.1" id="Capa_1" xmlns="http://www.w3.org/2000/svg" xmlns:xlink="http://www.w3.org/1999/xlink" x="0px" y="0px"
	 viewBox="0 0 511.999 511.999" style="enable-background:new 0 0 511.999 511.999;" xml:space="preserve">
<g>
	<g>
		<path style="fill:#9A9B9B" d="M404.484,34.882c-23.561-23.111-54.602-35.508-87.376-34.858c-29.675,0.571-58.018,11.993-79.811,32.16
			c-2.601,2.406-6.675,2.406-9.275,0c-21.793-20.166-50.136-31.588-79.809-32.16C115.405-0.619,84.394,11.77,60.835,34.881
			c-23.236,22.792-36.032,53.046-36.032,85.188c0,41.773,16.076,66.023,28.995,85.507c8.539,12.88,14.707,22.185,14.707,33.391
			c0,183.636,78.704,250.281,82.055,253.028l24.399,20.005v-31.552c0-37.539,7.376-82.399,19.251-117.072
			c12.684-37.037,27.438-53.615,36.434-53.615c6.041,0,13.818,6.447,21.339,17.69c2.474,3.698,4.886,7.864,7.224,12.422
			c22.439-43.782,68.041-73.813,120.526-73.813c5.47,0,10.862,0.336,16.165,0.97c0.573-10.338,0.877-20.796,0.877-31.338
			c0-9.925,5.021-17.372,13.896-29.68c12.596-17.467,29.847-41.39,29.847-85.944C440.516,87.926,427.72,57.673,404.484,34.882z"/>
	</g>
</g>
<g>
	<g>
		<path style="fill:#9A9B9B" d="M379.731,293.932c-59.256,0-107.465,48.208-107.465,107.465s48.209,107.465,107.465,107.465
			c59.257,0,107.466-48.208,107.466-107.465S438.988,293.932,379.731,293.932z M380.907,447.517l-43.193-43.193l21.116-21.116
			l14.749,14.749l21.547-40.215l26.322,14.103L380.907,447.517z"/>
	</g>
</g>
<g>
</g>
<g>
</g>
<g>
</g>
<g>
</g>
<g>
</g>
<g>
</g>
<g>
</g>
<g>
</g>
<g>
</g>
<g>
</g>
<g>
</g>
<g>
</g>
<g>
</g>
<g>
</g>
<g>
</g>
</svg>
