<?xml version="1.0" encoding="iso-8859-1"?>
<!-- Generator: Adobe Illustrator 19.0.0, SVG Export Plug-In . SVG Version: 6.00 Build 0)  -->
<svg version="1.1" id="Layer_1" xmlns="http://www.w3.org/2000/svg" xmlns:xlink="http://www.w3.org/1999/xlink" x="0px" y="0px"
	 viewBox="0 0 512 512" style="enable-background:new 0 0 512 512;" xml:space="preserve">
<g>
	<g>
		<path style="fill:#9A9B9B" d="M455.093,267.482c-1.05-0.34-2.089-0.65-3.129-0.93c-1.04-0.29-2.069-0.55-3.089-0.79c-0.51-0.12-1.02-0.24-1.53-0.34
			c-0.37-0.08-0.73-0.16-1.1-0.23c-0.65-0.13-1.29-0.25-1.929-0.36c-0.66-0.11-1.31-0.21-1.959-0.3c-0.19-0.04-0.38-0.06-0.58-0.09
			c-0.64-0.09-1.29-0.17-1.929-0.24c-0.73-0.08-1.46-0.15-2.189-0.21s-1.45-0.11-2.169-0.15c-0.72-0.04-1.43-0.07-2.139-0.09
			c-0.7-0.02-1.4-0.03-2.099-0.03h-0.01c-0.44,0-0.89,0-1.33,0.01c-0.44,0.01-0.89,0.02-1.33,0.04c-0.21,0-0.43,0.01-0.64,0.02
			c-0.39,0.02-0.78,0.04-1.16,0.06h-0.03c-0.05,0-0.09,0.01-0.14,0.01c-0.42,0.03-0.85,0.05-1.26,0.09c-0.5,0.03-1,0.07-1.5,0.12
			c-0.02,0-0.03,0-0.05,0.01c-0.45,0.04-0.91,0.09-1.36,0.14c-0.89,0.1-1.769,0.21-2.639,0.34c-0.05,0.01-0.1,0.01-0.15,0.02
			c-0.82,0.12-1.62,0.25-2.409,0.39c-0.4,0.07-0.8,0.14-1.2,0.22c-0.78,0.15-1.55,0.32-2.319,0.48c-0.76,0.17-1.51,0.35-2.259,0.54
			c-0.74,0.19-1.47,0.38-2.189,0.58c-0.36,0.1-0.72,0.21-1.08,0.31c-0.7,0.21-1.4,0.42-2.079,0.64c0,0,0,0-0.01,0
			c-0.34,0.11-0.68,0.22-1.01,0.34c-0.33,0.11-0.67,0.22-1,0.34c-0.33,0.11-0.66,0.22-0.98,0.34c-0.64,0.24-1.28,0.47-1.899,0.71
			s-1.23,0.49-1.829,0.73c-0.59,0.25-1.18,0.5-1.749,0.74c-0.12,0.06-0.24,0.11-0.36,0.16v0.01c-0.29,0.13-0.57,0.25-0.86,0.38
			c-0.42,0.19-0.83,0.38-1.24,0.57c-0.11,0.05-0.21,0.1-0.31,0.15c-0.16,0.07-0.31,0.15-0.46,0.23c-0.26,0.12-0.51,0.24-0.76,0.37
			c-0.5,0.24-0.98,0.49-1.45,0.73c-0.32,0.16-0.63,0.33-0.93,0.49c-0.37,0.2-0.73,0.39-1.08,0.59c-0.27,0.15-0.55,0.3-0.81,0.45
			c-0.26,0.15-0.52,0.3-0.77,0.45c-0.07,0.04-0.14,0.08-0.21,0.12c-0.25,0.15-0.49,0.29-0.72,0.43c-0.3,0.17-0.58,0.35-0.86,0.52
			c-0.33,0.2-0.64,0.39-0.93,0.58c-0.29,0.19-0.57,0.37-0.83,0.54c-0.21,0.13-0.41,0.27-0.59,0.38c-0.16,0.12-0.31,0.22-0.46,0.32
			c-0.2,0.14-0.39,0.27-0.56,0.39c-0.56,0.4-0.93,0.67-1.08,0.79h-0.09h-0.09c-0.15-0.12-0.52-0.39-1.08-0.79
			c-0.17-0.12-0.36-0.25-0.56-0.39c-0.11-0.07-0.21-0.14-0.33-0.22c-0.22-0.15-0.46-0.31-0.72-0.48c-0.26-0.17-0.54-0.35-0.83-0.54
			s-0.6-0.38-0.93-0.58c-0.16-0.1-0.33-0.2-0.5-0.31c-0.34-0.21-0.7-0.42-1.08-0.64c-0.56-0.33-1.16-0.67-1.789-1.02
			c-0.43-0.24-0.87-0.47-1.32-0.71c-0.39-0.21-0.81-0.42-1.23-0.64c-0.02-0.01-0.03-0.02-0.05-0.03c-0.7-0.35-1.42-0.71-2.179-1.07
			c-0.23-0.11-0.45-0.22-0.69-0.33c-0.23-0.1-0.47-0.21-0.71-0.32c-0.3-0.14-0.6-0.27-0.91-0.41c-0.24-0.11-0.48-0.21-0.73-0.32
			c-0.25-0.11-0.49-0.21-0.75-0.32c-0.5-0.21-1.02-0.42-1.54-0.63c-0.61-0.25-1.23-0.49-1.859-0.72c-0.64-0.24-1.28-0.47-1.939-0.7
			c-1.32-0.46-2.689-0.9-4.109-1.32c-0.71-0.21-1.43-0.41-2.159-0.6c-0.73-0.2-1.47-0.38-2.229-0.56
			c-0.75-0.18-1.51-0.35-2.289-0.51c-0.77-0.17-1.56-0.32-2.359-0.46c-0.79-0.14-1.6-0.27-2.419-0.39
			c-0.81-0.12-1.64-0.23-2.469-0.33c-0.38-0.05-0.77-0.09-1.16-0.13c-0.16-0.01-0.33-0.03-0.5-0.04c-0.02-0.01-0.04-0.01-0.06-0.01
			c-0.27-0.03-0.55-0.05-0.82-0.07c-0.65-0.06-1.3-0.11-1.959-0.14c-0.32-0.02-0.65-0.04-0.97-0.05c-0.33-0.02-0.65-0.03-0.98-0.04
			c-0.11-0.01-0.22-0.01-0.34-0.01c-0.77-0.03-1.549-0.04-2.329-0.04c-0.7,0-1.4,0.01-2.109,0.03c-0.71,0.02-1.42,0.05-2.139,0.09
			c-0.35,0.02-0.71,0.04-1.08,0.07c-0.36,0.02-0.72,0.05-1.08,0.08c-0.73,0.06-1.46,0.13-2.199,0.21
			c-0.64,0.07-1.28,0.15-1.929,0.24c-0.19,0.03-0.38,0.05-0.57,0.08c-0.65,0.1-1.3,0.2-1.959,0.31c-0.01,0-0.01,0-0.01,0
			c-0.65,0.12-1.29,0.24-1.939,0.37c-0.36,0.07-0.72,0.14-1.09,0.22c-0.51,0.1-1.02,0.22-1.53,0.34c-1.02,0.24-2.049,0.5-3.089,0.79
			c-1.04,0.28-2.079,0.59-3.129,0.93c-38.699,12.416-54.474,70.799-23.703,116.006c0.38,0.56,0.75,1.12,1.13,1.68
			c0.22,0.34,0.44,0.68,0.66,1.02c0.15,0.22,0.3,0.44,0.44,0.67c0.55,0.85,1.08,1.709,1.609,2.569c0.62,1,1.22,2.009,1.809,3.029
			c0.6,1.02,1.17,2.039,1.74,3.069c0.67,1.22,1.32,2.439,1.959,3.679c0.55,1.08,1.1,2.169,1.63,3.259
			c0.62,1.28,1.22,2.569,1.789,3.859c0.21,0.46,0.41,0.92,0.61,1.39c0.11,0.24,0.21,0.49,0.32,0.73c0.22,0.52,0.44,1.04,0.66,1.57
			c0.07,0.17,0.14,0.34,0.21,0.51c0.44,1.08,0.87,2.159,1.28,3.249c0.23,0.62,0.46,1.23,0.69,1.849c0.23,0.63,0.45,1.26,0.67,1.899
			c0.5,1.42,0.97,2.839,1.41,4.269c0.15,0.48,0.3,0.97,0.45,1.46c0.19,0.64,0.38,1.29,0.56,1.929c0.18,0.64,0.36,1.29,0.53,1.939
			c0.18,0.65,0.35,1.29,0.51,1.939c0.16,0.65,0.32,1.3,0.47,1.959c0.16,0.65,0.31,1.3,0.45,1.959c0.12,0.54,0.23,1.08,0.35,1.62
			c0.02,0.12,0.05,0.23,0.07,0.35c0.27,1.32,0.52,2.639,0.74,3.969c0.12,0.66,0.23,1.32,0.33,1.989c0.11,0.67,0.21,1.33,0.3,1.999
			c0.17,1.16,0.33,2.339,0.48,3.549c5.099,39.568,15.126,64.231,27.962,65.511c0.24,0.03,0.48,0.04,0.72,0.04
			c0.13,0,0.26,0,0.39-0.01c0.02,0,0.04,0,0.06-0.01c0.08,0,0.17-0.01,0.25-0.02c0.15-0.01,0.3-0.03,0.46-0.06
			c0.16-0.02,0.31-0.05,0.47-0.09c0.11-0.02,0.22-0.05,0.34-0.09c0.11-0.03,0.22-0.06,0.33-0.1c0.17-0.05,0.33-0.11,0.5-0.17
			c0.06-0.03,0.12-0.05,0.17-0.07c0.15-0.07,0.31-0.14,0.46-0.22c0.18-0.09,0.37-0.19,0.55-0.29c0.18-0.11,0.37-0.22,0.55-0.34
			c0.18-0.12,0.36-0.25,0.54-0.38c0.18-0.13,0.36-0.27,0.53-0.41c0.18-0.15,0.36-0.3,0.54-0.47c0.16-0.14,0.31-0.29,0.47-0.45
			c0.28-0.27,0.57-0.57,0.85-0.89c0.12-0.13,0.24-0.27,0.36-0.41c0.13-0.15,0.27-0.31,0.4-0.48c0.51-0.63,1.01-1.31,1.5-2.049
			c2.459-3.669,4.699-8.607,6.678-14.346c0.12-0.34,0.24-0.68,0.35-1.02c0.14-0.43,0.29-0.87,0.43-1.31
			c0.19-0.6,0.39-1.21,0.57-1.829c0.22-0.7,0.43-1.42,0.64-2.149c0.2-0.7,0.4-1.41,0.6-2.129c0.02-0.08,0.04-0.16,0.07-0.24
			c0.21-0.8,0.42-1.609,0.63-2.419c0.11-0.44,0.22-0.88,0.33-1.32c0.22-0.88,0.43-1.769,0.64-2.669c0.29-1.27,0.57-2.549,0.85-3.849
			c0.4-1.919,0.78-3.869,1.14-5.828c0.17-0.95,0.34-1.889,0.5-2.839c0.32-1.889,0.62-3.799,0.9-5.718
			c0.14-0.95,0.27-1.909,0.4-2.869c0.26-1.909,0.49-3.829,0.7-5.728c1.44-13.006,4.979-21.174,8.597-26.282
			c0.31-0.44,0.65-0.85,1-1.24c0.18-0.19,0.36-0.38,0.55-0.55c0.14-0.14,0.28-0.27,0.43-0.39c0.11-0.1,0.22-0.19,0.33-0.28
			c0.01-0.01,0.02-0.01,0.02-0.02c0.02-0.01,0.03-0.03,0.05-0.04c0.02-0.02,0.05-0.04,0.07-0.05c0.1-0.09,0.2-0.17,0.3-0.23
			c0.13-0.1,0.26-0.19,0.39-0.28c0.13-0.1,0.26-0.18,0.39-0.26c0.16-0.1,0.32-0.2,0.48-0.29c0.14-0.08,0.28-0.16,0.42-0.23
			c0.14-0.07,0.28-0.15,0.42-0.21c0.28-0.14,0.58-0.26,0.87-0.37c0.15-0.06,0.31-0.12,0.47-0.17c0.16-0.06,0.32-0.11,0.47-0.15
			c0.24-0.07,0.47-0.13,0.71-0.19c0.24-0.06,0.47-0.1,0.71-0.14c0.01-0.01,0.03-0.01,0.04-0.01c0.2-0.03,0.4-0.06,0.6-0.09
			c0.05,0,0.1-0.01,0.15-0.02c0.22-0.02,0.44-0.04,0.65-0.05c0.25-0.01,0.49-0.02,0.73-0.02c3.869,0,7.738,1.76,10.237,5.278
			c3.629,5.109,7.168,13.276,8.607,26.282c0.21,1.899,0.44,3.819,0.7,5.728c0.13,0.96,0.26,1.919,0.4,2.869
			c0.28,1.919,0.58,3.829,0.9,5.718c0.16,0.95,0.33,1.899,0.5,2.839c0.36,1.959,0.74,3.909,1.14,5.828
			c0.28,1.3,0.56,2.579,0.85,3.849c0.21,0.9,0.42,1.789,0.64,2.669c0.11,0.44,0.22,0.88,0.33,1.32c0.21,0.81,0.42,1.62,0.63,2.419
			c0.03,0.08,0.05,0.16,0.07,0.24c0.2,0.72,0.4,1.43,0.6,2.129c0.21,0.73,0.42,1.45,0.64,2.149c0.18,0.62,0.38,1.23,0.57,1.829
			c0.14,0.44,0.29,0.88,0.43,1.31c0.11,0.34,0.23,0.68,0.35,1.02c1.979,5.738,4.219,10.677,6.678,14.346
			c0.37,0.56,0.74,1.08,1.12,1.57c0.13,0.16,0.26,0.32,0.38,0.48c0.17,0.21,0.34,0.41,0.51,0.61c0,0.01,0,0.01,0,0.01
			c0.35,0.39,0.69,0.76,1.04,1.11c0.33,0.34,0.67,0.64,1,0.91c0.17,0.14,0.33,0.27,0.5,0.4c0.17,0.12,0.34,0.25,0.51,0.36
			c0.11,0.08,0.22,0.15,0.33,0.22c0.02,0.02,0.04,0.03,0.06,0.04c0.02,0.01,0.03,0.02,0.05,0.03c0.01,0.01,0.02,0.01,0.03,0.02
			c0.02,0.01,0.04,0.02,0.06,0.03c0.07,0.04,0.14,0.08,0.21,0.12c0.09,0.05,0.18,0.11,0.28,0.15c0.21,0.11,0.42,0.22,0.64,0.31
			c0.11,0.05,0.22,0.09,0.33,0.13c0.16,0.06,0.32,0.12,0.48,0.17c0.12,0.04,0.25,0.07,0.37,0.11c0.22,0.05,0.43,0.1,0.65,0.13
			c0.16,0.03,0.32,0.05,0.49,0.07h0.03c0.07,0.01,0.14,0.02,0.21,0.02h0.07c0.12,0.01,0.24,0.01,0.36,0.01h0.01
			c0.24,0,0.47-0.01,0.71-0.04c12.846-1.28,22.873-25.942,27.972-65.511c0.15-1.17,0.3-2.309,0.46-3.419
			c3.009-21.424,11.267-41.708,23.423-59.593C509.557,338.241,493.781,279.888,455.093,267.482z"/>
	</g>
</g>
<g>
	<g>
		<polygon style="fill:#9A9B9B" points="312.654,28.112 312.654,78.607 282.663,78.607 282.663,28.112 131.588,28.112 131.588,78.607 101.596,78.607 
			101.596,28.112 16.961,28.112 16.961,120.985 397.28,120.985 397.28,28.112 		"/>
	</g>
</g>
<g>
	<g>
		<path style="fill:#9A9B9B" d="M16.961,150.976v274.54h256.995c-1.879-5.108-4.149-10.127-6.798-14.996c-1.879-3.469-3.939-6.858-6.188-10.157
			c-1.08-1.59-2.129-3.209-3.129-4.839c-18.875-30.651-23.513-67.7-12.326-100.211c9.537-27.732,29.511-48.276,54.794-56.383
			c10.747-3.449,21.854-5.198,33.02-5.198c12.766,0,24.243,2.259,33.96,5.358c5.608,1.779,10.637,3.839,14.996,5.898
			c4.349-2.059,9.377-4.119,14.996-5.908v-88.104H16.961z M130.888,210.178H99.987v-30.901h30.901V210.178z M192.02,210.178h-30.911
			v-30.901h30.911V210.178z M253.142,210.178h-30.911v-30.901h30.911V210.178z M314.264,210.178h-30.901v-30.901h30.901V210.178z"/>
	</g>
</g>
<g>
	<g>
		<rect style="fill:#9A9B9B" x="101.6" width="29.991" height="28.112"/>
	</g>
</g>
<g>
	<g>
		<rect style="fill:#9A9B9B" x="282.667" width="29.991" height="28.112"/>
	</g>
</g>
<g>
</g>
<g>
</g>
<g>
</g>
<g>
</g>
<g>
</g>
<g>
</g>
<g>
</g>
<g>
</g>
<g>
</g>
<g>
</g>
<g>
</g>
<g>
</g>
<g>
</g>
<g>
</g>
<g>
</g>
</svg>
