<?xml version="1.0" encoding="iso-8859-1"?>
<!-- Generator: Adobe Illustrator 19.0.0, SVG Export Plug-In . SVG Version: 6.00 Build 0)  -->
<svg version="1.1" id="Capa_1" xmlns="http://www.w3.org/2000/svg" xmlns:xlink="http://www.w3.org/1999/xlink" x="0px" y="0px"
	 viewBox="0 0 512 512" style="enable-background:new 0 0 512 512;" xml:space="preserve">
<g>
	<g>
		<path style="fill:#9A9B9B" d="M147.665,130.865v291.88h216.67v-291.88H147.665z M256,395.319h-60.415c-8.277,0-14.988-6.711-14.988-14.988
			c0-8.277,6.711-14.988,14.988-14.988H256c8.277,0,14.988,6.711,14.988,14.988C270.988,388.608,264.277,395.319,256,395.319z
			 M316.415,299.163H195.585c-8.277,0-14.988-6.711-14.988-14.988c0-8.277,6.711-14.988,14.988-14.988h120.831
			c8.277,0,14.988,6.711,14.988,14.988C331.403,292.453,324.693,299.163,316.415,299.163z M316.415,247.924H195.585
			c-8.277,0-14.988-6.711-14.988-14.988s6.711-14.988,14.988-14.988h120.831c8.277,0,14.988,6.711,14.988,14.988
			S324.693,247.924,316.415,247.924z M316.415,196.683H195.585c-8.277,0-14.988-6.711-14.988-14.988s6.711-14.988,14.988-14.988
			h120.831c8.277,0,14.988,6.711,14.988,14.988S324.693,196.683,316.415,196.683z"/>
	</g>
</g>
<g>
	<g>
		<path style="fill:#9A9B9B" d="M378.443,41.611h-47.275V14.988C331.169,6.711,324.458,0,316.181,0H195.819c-8.277,0-14.988,6.711-14.988,14.988v26.623
			h-47.275c-33.976,0-61.617,27.642-61.617,61.617v347.155c0,33.976,27.642,61.617,61.617,61.617h244.887
			c33.976,0,61.617-27.642,61.617-61.617V103.228C440.062,69.252,412.419,41.611,378.443,41.611z M394.311,437.733
			c0,8.277-6.711,14.988-14.988,14.988H132.677c-8.277,0-14.988-6.711-14.988-14.988V115.877c0-8.277,6.711-14.988,14.988-14.988
			h246.646c8.277,0,14.988,6.711,14.988,14.988V437.733z"/>
	</g>
</g>
<g>
</g>
<g>
</g>
<g>
</g>
<g>
</g>
<g>
</g>
<g>
</g>
<g>
</g>
<g>
</g>
<g>
</g>
<g>
</g>
<g>
</g>
<g>
</g>
<g>
</g>
<g>
</g>
<g>
</g>
</svg>
