<?xml version="1.0" encoding="iso-8859-1"?>
<!-- Generator: Adobe Illustrator 19.0.0, SVG Export Plug-In . SVG Version: 6.00 Build 0)  -->
<svg version="1.1" id="Capa_1" xmlns="http://www.w3.org/2000/svg" xmlns:xlink="http://www.w3.org/1999/xlink" x="0px" y="0px"
	 viewBox="0 0 512.001 512.001" style="enable-background:new 0 0 512.001 512.001;" xml:space="preserve">
<g>
	<g>
		<path style="fill:#7ED1F2" d="M392.758,33.379c-22.545-22.114-52.256-33.988-83.613-33.355c-28.396,0.547-55.52,11.477-76.374,30.775
			c-2.274,2.105-5.704,2.104-7.977,0c-20.854-19.298-47.977-30.228-76.373-30.775c-31.37-0.602-61.068,11.24-83.613,33.355
			C42.572,55.19,30.326,84.143,30.326,114.905c0,39.947,15.359,63.113,27.701,81.728c8.066,12.167,13.894,20.958,13.894,31.434
			c0,64.785,20.476,126.016,37.654,165.974c18.545,43.142,36.959,70.93,37.734,72.091l27.182,40.759V457.9
			c0-34.832,6.892-76.45,18.018-109.204c-3.694-18.019-6.057-37.049-6.226-56.554c-1.066-1.941-3.31-5.324-4.885-7.699
			c-9.55-14.406-25.53-38.507-25.53-77.256c0-63.784,52.202-115.677,116.368-115.677c0.747,0,1.505,0.008,2.252,0.022
			c20.726,0.4,40.62,6.199,58.131,16.867c17.51-10.669,37.405-16.468,58.131-16.867c0.748-0.015,1.5-0.022,2.251-0.022
			c11.345,0,22.314,1.629,32.688,4.653C421.759,72.515,410.41,50.694,392.758,33.379z"/>
	</g>
</g>
<g>
	<g>
		<path style="fill:#7ED1F2" d="M455.275,144.748c-17.253-16.922-39.975-25.992-63.991-25.524c-21.738,0.419-42.499,8.785-58.462,23.557
			c-0.118,0.108-0.287,0.109-0.407,0c-15.962-14.771-36.724-23.138-58.46-23.556c-24.032-0.468-46.738,8.601-63.989,25.522
			c-17.026,16.7-26.401,38.875-26.401,62.442c0,30.402,12.087,48.634,20.913,61.945c6.062,9.143,9.491,14.616,9.491,20.771
			c0,91.54,53.498,172.814,55.776,176.228l27.182,40.759V457.9c0-25.659,5.04-56.315,13.152-80.003
			c8.787-25.656,18.195-34.291,21.137-34.291c3.265,0,13.014,8.138,22.309,33.291c8.819,23.868,14.085,54.15,14.085,81.003v54.101
			l27.599-46.532c2.288-3.858,56.033-95.417,56.033-177.843c0-5.545,3.027-10.002,8.827-18.044
			c9.118-12.644,21.606-29.96,21.606-62.394C481.675,183.622,472.299,161.448,455.275,144.748z"/>
	</g>
</g>
<g>
</g>
<g>
</g>
<g>
</g>
<g>
</g>
<g>
</g>
<g>
</g>
<g>
</g>
<g>
</g>
<g>
</g>
<g>
</g>
<g>
</g>
<g>
</g>
<g>
</g>
<g>
</g>
<g>
</g>
</svg>
